<svg xmlns="http://www.w3.org/2000/svg" viewBox="62 -923.5 5433.1 941.5" width="543.3" height="94.2"><defs><linearGradient id="ffLogoSky" gradientUnits="userSpaceOnUse" x1="0" y1="-917.5" x2="0" y2="12"><stop offset="0" stop-color="#d8ecf8"/><stop offset="1" stop-color="#98c0ef"/></linearGradient></defs><path fill="url(#ffLogoSky)" d="M68 0V-706H225V0ZM188-277V-412H541V-277ZM188-571V-706H557V-571ZM778.7-7.8Q704.5-34.8 657.8-86.4Q611.1-138 598.1-204.4Q585-270.9 610-339.5Q635-408.1 687.1-450.3Q739.1-492.6 805.9-503.4Q872.6-514.2 942.1-488.9Q1009.8-464.3 1050.9-416.4Q1092-368.4 1102.7-306Q1113.5-243.5 1089.3-176.8Q1084.8-164.6 1078.4-151.5Q1072.1-138.3 1061.8-121.9L667.7-264.2 703.7-362.9 1036.6-242.8 959.6-224Q973-263.8 971.1-293.7Q969.3-323.7 952.1-345.3Q935-367 903.1-378.6Q869.2-390.9 838.7-384.5Q808.1-378.1 784.3-354.8Q760.4-331.6 745.7-291.2Q731-250.8 735.1-216.8Q739.2-182.9 760.4-157.6Q781.5-132.4 818.1-119Q852-106.7 883.5-108.5Q915-110.4 944.3-126.3L994.5-18.7Q946.3 8.5 891.2 10.8Q836.1 13.1 778.7-7.8ZM1473.7-8.9Q1399.4 18.1 1330.5 8.6Q1261.6-.9 1208.9-43.5Q1156.2-86 1131.2-154.6Q1106.2-223.2 1119-289Q1131.7-354.8 1175.9-406Q1220.1-457.2 1289.6-482.5Q1357.2-507.2 1419.5-496.8Q1481.8-486.5 1530.2-445.6Q1578.6-404.7 1602.9-338Q1607.4-325.8 1610.9-311.6Q1614.5-297.5 1617.2-278.3L1223.8-134 1187.9-232.7 1520.2-354.7 1473.2-290.8Q1457.9-329.9 1437.3-351.6Q1416.6-373.4 1389.5-379Q1362.5-384.6 1330.5-372.9Q1296.7-360.6 1277.5-336.1Q1258.2-311.5 1254.8-278.3Q1251.5-245.2 1266.2-204.8Q1280.9-164.4 1305.9-141Q1330.9-117.7 1363.3-111.9Q1395.7-106.1 1432.4-119.5Q1466.2-131.8 1489.2-153.5Q1512.2-175.1 1524.3-206.1L1631.9-155.9Q1612.5-104.2 1571.7-67Q1531-29.8 1473.7-8.9ZM1887.1 12Q1844.1 12 1802.6 1Q1761.1-10 1725.6-30.5Q1690.1-51 1665.1-78L1752.1-166Q1776.1-140 1809.1-125.5Q1842.1-111 1881.1-111Q1908.1-111 1922.6-119Q1937.1-127 1937.1-141Q1937.1-159 1919.6-168.5Q1902.1-178 1875.1-185.5Q1848.1-193 1818.1-202Q1788.1-211 1761.1-227Q1734.1-243 1717.1-271.5Q1700.1-300 1700.1-344Q1700.1-391 1724.1-425.5Q1748.1-460 1792.1-480Q1836.1-500 1895.1-500Q1957.1-500 2009.6-478.5Q2062.1-457 2095.1-415L2008.1-327Q1985.1-354 1956.6-365Q1928.1-376 1901.1-376Q1875.1-376 1862.1-368.5Q1849.1-361 1849.1-347Q1849.1-332 1866.1-323Q1883.1-314 1910.1-307Q1937.1-300 1967.1-290Q1997.1-280 2024.1-263Q2051.1-246 2068.1-217.5Q2085.1-189 2085.1-143Q2085.1-72 2031.6-30Q1978.1 12 1887.1 12ZM2227.1 0V-687H2380.1V0ZM2117.1-356V-486H2490.1V-356ZM2595.1 0H2752.1V-839.3L2751-852.2 2747.8-864.8 2742.6-876.7 2735.5-887.5 2726.7-897.1 2716.5-905 2705.1-911.2 2692.8-915.4 2680.1-917.5H2667.1L2654.3-915.4 2642-911.2 2630.6-905 2620.4-897.1 2611.6-887.5 2604.5-876.7 2599.3-864.8 2596.1-852.2 2595.1-839.3ZM3201.1 0V-486H3354.1V0ZM3278.1-553Q3242.1-553 3218.6-577.5Q3195.1-602 3195.1-637Q3195.1-673 3218.6-697Q3242.1-721 3278.1-721Q3314.1-721 3337.1-697Q3360.1-673 3360.1-637Q3360.1-602 3337.1-577.5Q3314.1-553 3278.1-553ZM3739.1 0V-277Q3739.1-315 3715.6-338.5Q3692.1-362 3656.1-362Q3631.1-362 3612.1-351.5Q3593.1-341 3582.1-321.5Q3571.1-302 3571.1-277L3512.1-306Q3512.1-363 3537.1-406Q3562.1-449 3606.6-472.5Q3651.1-496 3707.1-496Q3761.1-496 3802.6-470.5Q3844.1-445 3868.1-403Q3892.1-361 3892.1-311L3892.1 0ZM3418.1 0V-486H3571.1V0ZM4187.1 10Q4118.1 10 4064.6-23Q4011.1-56 3980.6-113Q3950.1-170 3950.1-243Q3950.1-316 3980.6-373Q4011.1-430 4064.6-463Q4118.1-496 4187.1-496Q4237.1-496 4277.6-477Q4318.1-458 4344.6-424.5Q4371.1-391 4374.1-348L4374.1-143Q4371.1-100 4345.1-65.5Q4319.1-31 4278.1-10.5Q4237.1 10 4187.1 10ZM4214.1-128Q4247.1-128 4271.1-142.5Q4295.1-157 4309.1-183Q4323.1-209 4323.1-243Q4323.1-277 4309.6-302.5Q4296.1-328 4271.6-343Q4247.1-358 4215.1-358Q4183.1-358 4158.6-343Q4134.1-328 4119.6-302Q4105.1-276 4105.1-243Q4105.1-210 4119.1-184Q4133.1-158 4158.1-143Q4183.1-128 4214.1-128ZM4467.1 0H4317.1V-131L4340.1-249 4314.1-367V-726H4467.1ZM4805.1 11Q4726.1 11 4664.6-21.5Q4603.1-54 4568.1-112Q4533.1-170 4533.1-243Q4533.1-316 4567.6-373.5Q4602.1-431 4661.1-464Q4720.1-497 4794.1-497Q4866.1-497 4921.1-466Q4976.1-435 5007.6-380Q5039.1-325 5039.1-254Q5039.1-241 5037.6-226.5Q5036.1-212 5032.1-193L4613.1-192V-297L4967.1-298 4901.1-254Q4900.1-296 4888.1-323.5Q4876.1-351 4852.6-365.5Q4829.1-380 4795.1-380Q4759.1-380 4732.6-363.5Q4706.1-347 4691.6-317Q4677.1-287 4677.1-244Q4677.1-201 4692.6-170.5Q4708.1-140 4736.6-123.5Q4765.1-107 4804.1-107Q4840.1-107 4869.1-119.5Q4898.1-132 4920.1-157L5004.1-73Q4968.1-31 4917.1-10Q4866.1 11 4805.1 11ZM5103.1 0V-486H5256.1V0ZM5256.1-267 5192.1-317Q5211.1-402 5256.1-449Q5301.1-496 5381.1-496Q5416.1-496 5442.6-485.5Q5469.1-475 5489.1-453L5398.1-338Q5388.1-349 5373.1-355Q5358.1-361 5339.1-361Q5301.1-361 5278.6-337.5Q5256.1-314 5256.1-267Z"/><path fill="#663af3" d="M2750.1-698 2751.5-703.3 2753.1-704.8 2756.6-705.9 2788.4-707 2818.8-709.4 2909.9-720.8 2940.3-723.4 2970.7-723.8 3001.1-721.5 3031.4-716.1 3061.8-707.7 3092.2-696.9 3123.7-684.1 3126-682.7 3127.2-680.8 3124.9-678.4 3095.8-663.1 3067-646.7 3055.2-639.5 3052.6-636.1 3052.7-633.5 3055.2-628.9 3084.3-591.9 3124.9-537.8 3127.2-533.5 3126.8-532.6H3125L3092.2-545.7 3061.8-556.5 3031.4-564.9 3001.1-570.3 2970.7-572.6 2940.3-572.2 2909.9-569.6 2818.8-558.2 2788.4-555.8 2758.1-554.8 2754.4-555.4 2751.5-557.5 2750.1-562.3V-686.7ZM2750.1-412.1 2751.5-417.4 2755.2-419.9 2758.1-420.3 2786.9-421.7 2873.5-430.5 2902.3-432.6 2931.2-433.1 2960-431.3 2988.9-427 3017.8-420.3 3046.6-411.5 3104.3-391.4 3108.1-389.5 3108.8-388.2 3106.2-385.6 3034.3-350.4 3027.2-346.6 3024.8-343.7V-341.6L3027.2-337.3 3107-243.7 3108.8-240.4 3108.4-239.6 3106.9-239.5 3046.6-260.3 3017.8-269.1 2988.9-275.8 2960-280.1 2931.2-281.9 2902.3-281.4 2873.5-279.3 2786.9-270.5 2758.1-269.1 2753.1-270.1 2751-272.5 2750.1-276.4V-400.8Z"/><path fill="none" stroke="#663af3" stroke-width="61.4" stroke-linecap="round" d="M1110.6 -721.7L1110.6 -816.7M791.1 -592.6L732.7 -653.1M1430.2 -592.6L1488.5 -653.1"/></svg>
